<?xml version="1.0" encoding="UTF-8"?>
<svg id="Layer_2" data-name="Layer 2" xmlns="http://www.w3.org/2000/svg" viewBox="0 0 92.53 120.88">
  <defs>
    <style>
      .cls-1 {
        fill: #001413;
      }
    </style>
  </defs>
  <g id="Layer_1-2" data-name="Layer 1">
    <g>
      <path class="cls-1" d="M92.53,59.55l-21.71,1.52c-12.21,.85-21.93,10.57-22.78,22.79l-1.53,22.17-1.52-22.17c-.85-12.22-10.57-21.94-22.78-22.79L.5,59.55l21.71-1.51c12.21-.85,21.93-10.58,22.78-22.8l1.52-22.16,1.53,22.16c.85,12.22,10.57,21.95,22.78,22.8l21.71,1.51Z"/>
      <path class="cls-1" d="M41.86,14.76l-6.9,.48c-3.88,.27-6.97,3.36-7.24,7.24l-.49,7.04-.48-7.04c-.27-3.88-3.36-6.97-7.24-7.24l-6.9-.48,6.9-.48c3.88-.27,6.97-3.36,7.24-7.24l.48-7.04,.49,7.04c.27,3.88,3.36,6.97,7.24,7.24l6.9,.48Z"/>
      <path class="cls-1" d="M16.19,32.69l-3.82,.27c-2.15,.15-3.86,1.86-4.01,4.01l-.27,3.9-.27-3.9c-.15-2.15-1.86-3.86-4.01-4.01l-3.82-.27,3.82-.27c2.15-.15,3.86-1.86,4.01-4.01l.27-3.9,.27,3.9c.15,2.15,1.86,3.86,4.01,4.01l3.82,.27Z"/>
      <path class="cls-1" d="M58.55,106.12l6.9-.48c3.88-.27,6.97-3.36,7.24-7.24l.49-7.04,.48,7.04c.27,3.88,3.36,6.97,7.24,7.24l6.9,.48-6.9,.48c-3.88,.27-6.97,3.36-7.24,7.24l-.48,7.04-.49-7.04c-.27-3.88-3.36-6.97-7.24-7.24l-6.9-.48Z"/>
      <path class="cls-1" d="M71.1,81.96l3.82-.27c2.15-.15,3.86-1.86,4.01-4.01l.27-3.9,.27,3.9c.15,2.15,1.86,3.86,4.01,4.01l3.82,.27-3.82,.27c-2.15,.15-3.86,1.86-4.01,4.01l-.27,3.9-.27-3.9c-.15-2.15-1.86-3.86-4.01-4.01l-3.82-.27Z"/>
    </g>
  </g>
</svg>