<?xml version="1.0" encoding="UTF-8"?>
<svg id="Layer_2" data-name="Layer 2" xmlns="http://www.w3.org/2000/svg" viewBox="0 0 262.25 487.2">
  <defs>
    <style>
      .cls-1 {
        fill: #261400;
      }
    </style>
  </defs>
  <g id="Layer_1-2" data-name="Layer 1">
    <path class="cls-1" d="M203.61,313.12c.08-10.36,.13-20.72,.15-31.08-.19-68.42-1.31-136.92-6.51-205.17-5.2,68.25-6.33,136.75-6.51,205.17,.02,10.17,.07,20.35,.15,30.52-14.51-.56-29.03-.87-43.54-1.02,1.13-36.29,1.5-72.61,1.59-108.91-.19-67.57-1.31-135.22-6.51-202.62-5.2,67.4-6.33,135.06-6.51,202.62,.09,36.27,.46,72.56,1.59,108.82-2.13-.01-4.25-.03-6.38-.04-43.75,.16-87.64,1.29-131.13,6.51,43.49,5.22,87.38,6.35,131.13,6.51,2.27,0,4.54-.02,6.81-.04,.98,26.98,2.4,53.93,4.49,80.85,2.09-26.94,3.51-53.92,4.49-80.93,14.69-.15,29.38-.46,44.06-1.03,.54,54.68,2.09,109.38,6.27,163.91,4.19-54.72,5.74-109.6,6.28-164.46,19.62-.98,39.21-2.48,58.72-4.81-19.48-2.33-39.05-3.83-58.64-4.81Z"/>
  </g>
</svg>